<?xml version="1.0" encoding="UTF-8"?>
<svg width="160px" height="34px" viewBox="0 0 160 34" version="1.1" xmlns="http://www.w3.org/2000/svg" xmlns:xlink="http://www.w3.org/1999/xlink">
    <title>logo_wj_semiblack</title>
    <g id="Page-1" stroke="none" stroke-width="1" fill="none" fill-rule="evenodd" opacity="0.2">
        <g id="Artboard" transform="translate(-879.000000, -750.000000)" fill="#FFFFFF" fill-rule="nonzero">
            <g id="Footer" transform="translate(162.000000, 750.000000)">
                <g id="Group" transform="translate(717.000000, 0.000000)">
                    <path d="M42.4,23 L44.2,23 L47.1,14.5 L50,23 L51.8,23 L55.9,11.1 L53.7,11.1 L50.9,19.8 L48,11.1 L46.3,11.1 L43.4,19.9 L40.6,11.2 L38.4,11.2 L42.4,23 L42.4,23 Z M58,22.9 L66.8,22.9 L66.8,21 L60,21 L60,17.8 L65.9,17.8 L65.9,16 L60,16 L60,13 L66.7,13 L66.7,11.2 L58,11.2 L58,22.9 L58,22.9 Z M69.2,22.9 L74.6,22.9 C77.2,22.9 79,21.8 79,19.7 L79,19.7 C79,18.1 78,17.3 76.7,16.8 C77.6,16.3 78.4,15.6 78.4,14.2 L78.4,14.2 C78.4,13.4 78.1,12.8 77.6,12.2 C76.9,11.5 75.9,11.2 74.5,11.2 L69.2,11.2 L69.2,22.9 L69.2,22.9 Z M71.3,16.1 L71.3,13 L74.3,13 C75.6,13 76.4,13.6 76.4,14.5 L76.4,14.5 C76.4,15.6 75.5,16.1 74.2,16.1 L71.3,16.1 L71.3,16.1 Z M71.3,21.1 L71.3,17.9 L74.6,17.9 C76.2,17.9 77,18.5 77,19.5 L77,19.5 C77,20.6 76.1,21.1 74.7,21.1 L71.3,21.1 L71.3,21.1 Z M81.5,22.9 L83.6,22.9 L83.6,11.1 L81.5,11.1 L81.5,22.9 L81.5,22.9 Z M86.7,22.9 L88.7,22.9 L88.7,14.5 L95.2,22.9 L97,22.9 L97,11.1 L95,11.1 L95,19.2 L88.7,11.1 L86.8,11.1 L86.8,22.9 L86.7,22.9 Z M99,22.9 L101.1,22.9 L102.3,20.1 L107.9,20.1 L109.1,22.9 L111.3,22.9 L106.1,11 L104.2,11 L99,22.9 L99,22.9 Z M103.1,18.2 L105.1,13.5 L107.1,18.2 L103.1,18.2 L103.1,18.2 Z M113.3,22.9 L115.4,22.9 L115.4,18.8 L118,18.8 L120.9,22.9 L123.3,22.9 L120.1,18.4 C121.7,17.9 122.9,16.8 122.9,14.8 L122.9,14.8 C122.9,13.8 122.5,12.9 121.9,12.3 C121.1,11.6 120,11.1 118.5,11.1 L113.3,11.1 L113.3,22.9 L113.3,22.9 Z M115.3,16.9 L115.3,12.9 L118.3,12.9 C119.8,12.9 120.7,13.6 120.7,14.9 L120.7,14.9 C120.7,16.1 119.8,16.9 118.3,16.9 L115.3,16.9 L115.3,16.9 Z" id="Shape"></path>
                    <path d="M128.8,23 C130,23 131,22.6 131.7,22 C132.4,21.3 132.8,20.3 132.8,18.9 L132.8,11.1 L130.7,11.1 L130.7,18.8 C130.7,20.4 129.9,21.1 128.8,21.1 C127.8,21.1 127.1,20.6 126.4,19.7 L125,21.1 C125.8,22.2 127,23 128.8,23 L128.8,23 Z M134.1,22.8 L136.2,22.8 L137.4,20 L143,20 L144.2,22.8 L146.4,22.8 L141.2,11 L139.3,11 L134.1,22.8 L134.1,22.8 Z M138.2,18.2 L140.2,13.5 L142.2,18.2 L138.2,18.2 L138.2,18.2 Z M148.4,22.8 L150.4,22.8 L150.4,14.4 L154.1,19.9 L154.2,19.9 L157.9,14.4 L157.9,22.8 L160,22.8 L160,11.1 L157.8,11.1 L154.2,16.7 L150.6,11.1 L148.4,11.1 L148.4,22.8 L148.4,22.8 Z" id="Shape"></path>
                    <path d="M11.1,19.2 L13.3,12.4 L15,12.4 L17.2,19.2 L22.5,2.4 L22.9,1.1 L23.1,1.2 C25.5,2.1 27.4,3.4 29,5 C32.2,8.2 34,12.5 34,17 C34,21.5 32.2,25.8 29,29 C26.6,31.4 23.5,33 20.2,33.7 L19.9,33.8 L20.6,31.5 L20.7,31.5 C23.3,30.8 25.6,29.5 27.5,27.6 C30.3,24.8 31.9,21 31.9,17.1 C31.9,13.1 30.3,9.4 27.5,6.6 C26.6,5.7 25.5,4.9 24.4,4.2 C22.4,10.4 20.4,16.5 18.3,22.7 L18.3,22.8 L16.5,22.8 L14.3,16.3 L12,22.7 L10.2,22.7 L6.7,12.5 L9,12.5 L11.1,19.2 L11.1,19.2 Z" id="Path"></path>
                    <polygon id="Path" points="24 9.4 26.2 9.4 25.5 11.6 23.3 11.6"></polygon>
                    <path d="M16.9,31.9 L23,12.5 L25.2,12.5 L18.4,34 L18.3,34 C17.9,34 17.4,34 17,34 C12.5,34 8.2,32.2 5,29 C1.8,25.8 -3.55271368e-15,21.5 -3.55271368e-15,17 C-3.55271368e-15,12.5 1.8,8.2 5,5 C8.2,1.8 12.5,0 17,0 C18.6,0 20.2,0.2 21.7,0.7 L21.9,0.8 L21.3,2.8 L21.1,2.7 C19.8,2.3 18.4,2.1 17,2.1 C13,2.1 9.3,3.7 6.5,6.5 C3.7,9.3 2.1,13 2.1,17 C2.1,21 3.7,24.7 6.5,27.5 C9.2,30.3 13,31.8 16.9,31.9 L16.9,31.9 Z" id="Path"></path>
                </g>
            </g>
        </g>
    </g>
</svg>