<?xml version="1.0" encoding="UTF-8"?>
<svg id="Layer_1" data-name="Layer 1" xmlns="http://www.w3.org/2000/svg" viewBox="0 0 60 60">
  <path d="M39.1,27.02h-9.48c-.98,0-1.78-.8-1.78-1.78s.8-1.78,1.78-1.78h9.48c.98,0,1.78.8,1.78,1.78s-.8,1.78-1.78,1.78Z"/>
  <circle id="Dot.Top" cx="20.75" cy="25.83" r="1.78"/>
  <path d="M39.1,37.68h-9.48c-.98,0-1.78-.8-1.78-1.78s.8-1.78,1.78-1.78h9.48c.98,0,1.78.8,1.78,1.78s-.8,1.78-1.78,1.78Z"/>
  <circle id="Dot.Top-2" data-name="Dot.Top" cx="20.75" cy="36.49" r="1.78"/>
  <path d="M39.1,47.15h-9.48c-.98,0-1.78-.8-1.78-1.78s.8-1.78,1.78-1.78h9.48c.98,0,1.78.8,1.78,1.78s-.8,1.78-1.78,1.78Z"/>
  <circle id="Dot.Top-3" data-name="Dot.Top" cx="20.75" cy="45.97" r="1.78"/>
  <path d="M40.29,59h-22.51c-4.25,0-7.7-3.45-7.7-7.7V16.95c0-4.25,3.45-7.7,7.7-7.7h22.51c4.25,0,7.7,3.45,7.7,7.7v34.35c0,4.25-3.45,7.7-7.7,7.7ZM17.79,12.8c-2.29,0-4.15,1.86-4.15,4.15v34.35c0,2.29,1.86,4.15,4.15,4.15h22.51c2.29,0,4.15-1.86,4.15-4.15V16.95c0-2.29-1.86-4.15-4.15-4.15h-22.51Z"/>
  <path d="M37.91,18.73h-17.77c-1.63,0-2.96-1.33-2.96-2.96v-2.37c-.01-.1-.05-.29-.09-.48-.19-.91-.42-2.04.3-2.93.38-.47.96-.74,1.57-.74h1.18c.98,0,1.78.8,1.78,1.78,0,.8-.53,1.47-1.25,1.7.04.23.07.45.07.67v1.78h16.58v-1.78c-.01-.16-.12-.55-.23-.79-.57-.3-.95-.89-.95-1.57,0-.98.8-1.78,1.78-1.78,2.23,0,2.96,3.08,2.96,4.15v2.37c0,1.63-1.33,2.96-2.96,2.96ZM37.91,12.8h.01-.01Z"/>
  <path d="M29.04,12.21c-2.94,0-5.33-2.39-5.33-5.33s2.39-5.33,5.33-5.33,5.33,2.39,5.33,5.33-2.39,5.33-5.33,5.33ZM29.04,5.1c-.98,0-1.78.8-1.78,1.78s.8,1.78,1.78,1.78,1.78-.8,1.78-1.78-.8-1.78-1.78-1.78Z"/>
</svg>