<?xml version="1.0" encoding="UTF-8"?>
<svg id="Layer_1" data-name="Layer 1" xmlns="http://www.w3.org/2000/svg" viewBox="0 0 60 60">
  <defs>
    <style>
      .cls-1 {
        fill: #fff;
      }
    </style>
  </defs>
  <g>
    <rect id="Rectangle_1" data-name="Rectangle 1" x="1.99" y="19" width="41.7" height="29.14" rx="3.11" ry="3.11"/>
    <path class="cls-1" d="M40.58,48.55H5.1c-.94,0-1.82-.37-2.49-1.03-.67-.67-1.03-1.55-1.03-2.49v-22.91c0-.94.37-1.82,1.03-2.49.67-.67,1.55-1.03,2.49-1.03h35.48c.94,0,1.82.37,2.49,1.03.67.67,1.03,1.55,1.03,2.49v22.91c0,.94-.37,1.82-1.03,2.49s-1.55,1.03-2.49,1.03ZM5.1,19.41c-.72,0-1.4.28-1.91.79-.51.51-.79,1.19-.79,1.91v22.91c0,.72.28,1.4.79,1.91.51.51,1.19.79,1.91.79h35.48c.72,0,1.4-.28,1.91-.79.51-.51.79-1.19.79-1.91v-22.91c0-.72-.28-1.4-.79-1.91s-1.19-.79-1.91-.79H5.1Z"/>
  </g>
  <g id="Vector">
    <g>
      <path id="Vector-2" data-name="Vector" d="M47.01,27.12c.82-.57,2.11-1.65,3.1-1.55l.2.02c.93.09,2.4,1.11,3.06,1.77.66.66.17,1.98.26,2.92.43,4.34-2.26,9.55-3.62,12.06-1.83,3.37-7.18-.33-9.49-.15-2.31.18-5.37-1.29-5.9-3.65-.53-2.36-2.69-4.45-4.86-4.51,2.15-2.15,5.73.07,8.81-.77,1.07-.3,3.05-1.65,3.89-2.62,2.39-2.75,3.05-2.47,4.56-3.52Z"/>
      <path class="cls-1" d="M47.43,44.18c-.08,0-.16,0-.24,0-1.22-.05-2.59-.5-3.8-.9-1.12-.37-2.17-.72-2.85-.67-.61.05-1.28-.01-1.95-.17-.66-.16-1.32-.42-1.9-.75-1.33-.76-2.21-1.84-2.49-3.05-.12-.54-.33-1.07-.63-1.57-.29-.5-.65-.94-1.06-1.33-.85-.8-1.83-1.25-2.77-1.28l-.97-.03.69-.69c.63-.64,1.44-.99,2.45-1.07.87-.07,1.77.05,2.73.17,1.28.17,2.61.35,3.81.02.46-.13,1.17-.5,1.91-1,.74-.5,1.4-1.05,1.78-1.49.79-.91,1.44-1.55,2.06-2.03.56-.43,1.01-.67,1.45-.9.36-.19.71-.37,1.12-.66h0c.12-.08.25-.18.39-.28.42-.3.89-.64,1.38-.91.62-.34,1.15-.48,1.61-.43h0s.2.02.2.02c.61.06,1.32.43,1.8.73.57.35,1.13.78,1.51,1.16.58.58.49,1.46.42,2.23-.03.35-.07.67-.04.94.19,1.94-.2,4.26-1.16,6.9-.77,2.12-1.75,4-2.51,5.4-.34.62-.8,1.06-1.39,1.33-.45.21-.96.31-1.56.31ZM40.68,41.77c.81,0,1.82.33,2.97.71,1.21.4,2.47.81,3.57.86,1.17.05,1.94-.33,2.41-1.2.75-1.37,1.7-3.22,2.46-5.28.92-2.52,1.3-4.72,1.11-6.53-.03-.35,0-.73.04-1.11.06-.65.12-1.25-.18-1.56-.33-.33-.85-.73-1.35-1.04-.58-.36-1.1-.58-1.46-.61h0s-.2-.02-.2-.02c-.28-.03-.66.08-1.12.33-.45.24-.89.57-1.29.85-.14.1-.28.2-.41.29h0c-.46.32-.84.52-1.21.71-.84.44-1.63.85-3.26,2.73-.43.49-1.14,1.09-1.94,1.63-.82.56-1.61.96-2.16,1.11-1.37.38-2.78.19-4.14,0-.91-.12-1.77-.23-2.55-.17-.44.04-.82.13-1.16.28.79.23,1.57.69,2.26,1.34.47.44.88.96,1.21,1.52.34.58.59,1.19.73,1.81.22.97.96,1.87,2.09,2.51,1.04.59,2.3.9,3.38.82.07,0,.13,0,.2,0Z"/>
    </g>
  </g>
  <g id="Layer_6" data-name="Layer 6">
    <path id="Group_2" data-name="Group 2" class="cls-1" d="M54.16,51c.48-.16.84-.4,1.1-.84.05-.08.26-.52.26-.56v-22.98h.75v7.25c0,.23.16.6.3.78.74.96,2.22.59,2.42-.58v-8.57c-.52-2.85-3.65-3.06-6.01-2.96l-1.54,2.37-1.38-2.37c-1.87-.07-4.13-.03-5.4,1.55-.59.74-.6,1.27-.71,2.15-.01.09.04.12-.1.1-1.02-.59-2.07-2.02-3.35-1.31l-7.07-4.68-.1.03-.27.51,6.91,4.64c-.09.64-.14,1.21.35,1.7,1.43.78,2.82,2.07,4.24,2.82.63.33,1.37.36,1.83-.27.06-.08.27-.48.27-.54v-2.62h.82v22.98s.21.48.26.56c.26.44.62.68,1.1.84h.95c.55-.24,1.04-.58,1.23-1.19.03-.11.13-.54.13-.62v-14.54h.68v14.6c0,.1.13.53.17.65.22.57.66.85,1.19,1.09h.95Z"/>
    <path id="Group_1" data-name="Group 1" class="cls-1" d="M50.82,15.94c-2.16.59-3.15,3.14-1.73,4.96,1.29,1.65,3.99,1.5,5.05-.31,1.1-1.88.08-4.08-1.96-4.65h-1.36Z"/>
  </g>
</svg>