<?xml version="1.0" encoding="UTF-8"?>
<svg id="Layer_1" data-name="Layer 1" xmlns="http://www.w3.org/2000/svg" viewBox="0 0 60 60">
  <defs>
    <style>
      .cls-1 {
        fill: #d2d2d2;
      }

      .cls-2 {
        fill: #5c5c5c;
      }

      .cls-3 {
        fill: #fff;
      }
    </style>
  </defs>
  <path id="Group_1" data-name="Group 1" class="cls-3" d="M59.41,29.79c0,16.13-13.08,29.21-29.21,29.21S.99,45.92.99,29.79,14.07.58,30.2.58s29.21,13.08,29.21,29.21"/>
  <path id="Group_3" data-name="Group 3" d="M10.6,20.84c-.33-.05-.66-.2-.92-.45-.64-.63-.65-1.66-.02-2.3,6.19-6.28,13.21-5.42,13.5-5.38.89.12,1.51.94,1.39,1.83s-.93,1.51-1.82,1.39c-.25-.03-5.76-.64-10.76,4.44-.37.38-.88.54-1.37.47Z"/>
  <path id="Group_2" data-name="Group 2" d="M50.57,20.15c-.5,0-.98-.22-1.3-.65-4.21-5.61-11.3-4.26-11.37-4.25-.89.18-1.73-.39-1.91-1.27-.18-.88.39-1.73,1.27-1.91.37-.08,9.18-1.74,14.6,5.49.54.72.39,1.73-.32,2.27-.29.22-.63.33-.97.33Z"/>
  <path d="M40.44,45.03h-7.96s-11.01-.03-11.01-.03c-1.3,0-2.35-1.06-2.35-2.36,0-1.3,1.06-2.35,2.36-2.35h0l11.01.02h7.95c1.3.01,2.35,1.07,2.35,2.37,0,1.3-1.06,2.35-2.36,2.35Z"/>
  <path id="Group_1-2" data-name="Group 1" d="M40.54,23.47c2.24,0,4.06,2.54,4.06,5.68s-1.82,5.68-4.06,5.68-4.06-2.54-4.06-5.68,1.82-5.68,4.06-5.68Z"/>
  <path id="Group_1-3" data-name="Group 1" d="M19.5,23.47c2.24,0,4.06,2.54,4.06,5.68s-1.82,5.68-4.06,5.68-4.06-2.54-4.06-5.68,1.82-5.68,4.06-5.68Z"/>
  <g id="zip">
    <g>
      <path id="Rectangle_1" data-name="Rectangle 1" class="cls-1" d="M51.48,47.11c-.55,1.34-2.07,1.98-3.41,1.43l-5.64-3.2c-.91-.37-1.35-1.41-.98-2.33s1.41-1.35,2.33-.98l6.27,1.66c1.34.55,1.98,2.07,1.43,3.41Z"/>
      <path class="cls-2" d="M49.06,48.78c-.33,0-.67-.06-1-.2l-5.65-3.2c-.93-.38-1.38-1.45-1-2.39.18-.45.54-.81.99-1,.45-.19.95-.19,1.4,0l6.26,1.66c1.37.56,2.02,2.11,1.47,3.47h0c-.42,1.03-1.42,1.66-2.47,1.66ZM43.1,41.95c-.23,0-.46.05-.67.14-.43.18-.76.51-.93.94-.36.89.07,1.9.95,2.26l5.65,3.2c1.3.53,2.8-.1,3.34-1.41h0c.53-1.31-.1-2.81-1.41-3.34l-6.26-1.66c-.22-.09-.44-.13-.66-.13Z"/>
    </g>
    <g>
      <circle id="Ellipse_1" data-name="Ellipse 1" class="cls-3" cx="42.9" cy="43.48" r=".88"/>
      <path class="cls-2" d="M42.9,44.41c-.12,0-.24-.02-.35-.07-.47-.19-.7-.74-.51-1.21h0c.09-.23.27-.41.5-.51.23-.1.48-.1.71,0,.23.09.41.27.51.5.1.23.1.48,0,.71-.15.36-.5.58-.86.58ZM42.13,43.17c-.17.42.03.91.46,1.08.42.17.91-.03,1.08-.45.08-.21.08-.43,0-.64-.09-.2-.25-.36-.45-.45-.21-.08-.43-.08-.63,0-.2.09-.36.25-.45.45h0Z"/>
    </g>
  </g>
</svg>