<?xml version="1.0" encoding="UTF-8"?>
<svg id="Layer_1" data-name="Layer 1" xmlns="http://www.w3.org/2000/svg" viewBox="0 0 60 60">
  <g id="Layer_62" data-name="Layer 62">
    <path id="Group_8" data-name="Group 8" d="M14.56,31.4c.28.42.47,1.03,1.06.55.61-.51-.01-.85-.32-1.25-.07.43-.26.73-.74.7ZM20.56,30.89c-.55.3-.69-.43-.76-.35-.22.23-.4.44-.76.43.73,1.04.81,1.04,1.53-.08ZM14.6,21.92c.21.61.67.73,1.22.69-.05-.29.08-.55.12-.83.02-.15-.61-.11-1.34.13ZM19.03,27.78c.24.53.48,1.04,1.1.84.19-.06.25-.52.36-.79-.32-.03-.57-.15-.65-.5-.26.17-.36.6-.82.45ZM7.92,21.91c.22.56.66.98,1.09.63.56-.45.02-.91-.36-1.31-.09.4-.23.75-.73.68ZM14.63,25.05c.12.76.87.96,1.12.71.44-.44.04-.98-.46-1.36-.06.39-.2.71-.66.65ZM18.99,24.69c.7-.16-.1.89.81.77.72-.09.27-.76.76-.78-.39-.03-.64-.17-.73-.68-.2.41-.35.71-.84.69ZM14.66,28.23c.04.81.87.92,1.11.67.38-.38.05-.98-.49-1.35-.01.43-.23.7-.62.68ZM19.06,21.49c.73,1.06.85,1.06,1.38.08-.43-.73-.91-.25-1.38-.08ZM15.28,17.99c-.03.53-.27.77-.7.76.24.55.82.95,1.16.66.5-.42-.05-.92-.46-1.42ZM11.63,32.07c-.41.21-.56-.03-.67-.37q-.55.99-.45,1.51c.63-.01.89-.47,1.11-1.15ZM9.93,22.95c.53.24.56.55.53.86.64-.14.99-.55,1.16-1.18-.34.09-.57-.04-.66-.53-.19.51-.34.88-1.03.85ZM10.54,26.94c.54-.15.88-.54,1.09-1.12-.3,0-.59-.06-.67-.5-.23.6-1.09.9-.42,1.62ZM10.98,28.53c-.36.55-1.05.91-.48,1.56.61-.06.94-.48,1.09-1.1-.28,0-.58-.04-.62-.46ZM5.69,33.29c.58-.11-.05.79.82.73.9-.07.14-.93.76-.93-.43.08-.62-.18-.84-.6-.05.56-.3.75-.74.81ZM19.75,17.72c.02.59-.42.51-.75.68.57-.06-.05.78.76.74.74-.04.33-.72.79-.8-.4,0-.63-.18-.8-.62ZM24.22,21.39c-.06.48-.44.49-.81.6.66-.09-.06.76.74.84.74.07.38-.68.85-.63-.44-.11-.69-.34-.78-.81ZM23.45,28.25q.8,1.06,1.54.2c-.5.01-.65-.32-.78-.77-.03.52-.41.52-.76.57ZM8.64,24.4c-.03.43-.31.66-.66.72.13.73.69.64,1.11.7.31-.6.04-1.03-.45-1.41ZM8.69,27.58c-.19.19-.11.61-.52.64-.08,0-.16.08-.24.12.29.11.23.63.42.6.29-.05.55.1.83.01-.34-.25.49-.7-.15-.91-.23-.07-.18-.35-.34-.47ZM11.66,19.44c-.4.13-.6-.03-.69-.4q-.55,1-.47,1.61c.56-.18.92-.56,1.16-1.21ZM2.06,23.17c-.13.39-.35.63-.82.51q.78,1.05,1.59.11c-.42,0-.68-.17-.77-.62ZM23.45,25.04c.3.52.47,1.36,1.09.95.78-.5-.17-.93-.36-1.58-.05.57-.33.67-.73.63ZM1.22,30.04q.83,1.02,1.66-.03c-.61.24-.67-.21-.88-.63-.06.57-.35.7-.78.66ZM1.23,33.2q.83,1.02,1.65-.02c-.61.24-.66-.22-.87-.62-.07.53-.33.7-.78.63ZM1.22,26.86q.82,1.02,1.66-.01c-.63.25-.66-.22-.88-.61-.07.53-.33.7-.78.62ZM12.66,21.82c.08-.59.85.11.97-.62.09-.59-.43-.6-.55-1.02.04.59-.41.6-.89.77.54.17.57.46.47.86ZM23.66,32.47c.38-.23.63-.28.87-.07.13-.24.12-.57.55-.76-.64.06-.68-.4-.9-.81.03.57-.42.5-.79.63.44.22.42.53.27,1.01ZM3.3,25.45c.46.32.53.61.48.9.77.15,1.03-.32,1.23-.99-.42.16-.63-.02-.72-.6-.18.52-.37.81-.99.69ZM5.02,28.6c-.37.04-.66-.08-.73-.53-.4.65-.63,1.42-.47,1.45.72.18.94-.36,1.2-.92ZM23.7,19.67c.63.12,1.03-.11,1.33-.75-.59.12-.64-.33-.83-.82-.07.56-.36.68-.94.61.54.3.6.61.44.96ZM21.93,29.03c-.04.45-.31.59-.83.54.37.29.62.51.25,1,.47-.2.79-.21,1.14.15-.02-.38-.12-.65.17-.8.2-.1.08-.22-.05-.21-.45.01-.42-.44-.68-.68ZM21.27,23.26c.12.66.57.91,1.23,1-.12-.34,0-.61.53-.9-.74.09-.86-.29-1.11-.83.03.68-.33.71-.64.73ZM16.72,23.29c.39.19.39.53.38,1.01.34-.45.65-.29,1.12-.1-.43-.54-.05-.78.17-1.14-.48.12-.72-.05-.82-.63-.15.6-.38.85-.85.86ZM7.83,31.39q.85.98,1.72-.39c-.66.51-.67-.03-.88-.3-.14.39-.21.8-.84.7ZM4.27,21.76c-.13.47-.44.59-.85.57q.86.99,1.61-.07c-.32-.05-.7,0-.76-.51ZM18.35,26.28c-.4.05-.71-.05-.76-.53-.14.44-.39.69-1,.7.53.22.52.55.5.88.28-.07.5-.33.79-.09.11.09.27.02.18-.15-.22-.38.2-.5.3-.81ZM1.52,21.49c.68-.01,1.05-.33,1.28-.9-.46.07-.62-.23-.73-.71-.14.51-.37.75-.87.7.43.22.5.54.33.91ZM18.11,20.96c-.4-.49.11-.68.26-1.02-.39.03-.71-.02-.84-.52,0,.6-.43.61-.87.72.43.2.46.51.41.92.34-.26.63-.29,1.03-.1ZM6.04,27.88c.25-.52.8-.07.86-.25.11-.29.09-.64.41-.95-.52.28-.63-.17-1-.51.15.69-.3.64-.91.82.77.09.65.44.63.88ZM17.12,30.51c.32-.32.63-.17,1.1.05-.41-.55-.07-.8.18-1.16-.48.11-.73-.06-.83-.63-.15.58-.38.84-1,.8.5.26.58.54.55.93ZM5.64,30.1c.61.18.35.59.34.85.79.09,1.05-.46,1.31-1.14-.47.28-.61-.11-.88-.44-.04.51-.27.72-.78.73ZM5.98,24.57c.85.14,1.04-.46,1.3-1.02-.36.07-.66-.02-.82-.46-.07.49-.37.63-.92.65.46.25.61.5.44.83ZM5.02,31.77c-.32-.03-.66-.06-.72-.47-.22.23-.4.54-.78.55.2.26.2.8.35.83.66.17.9-.38,1.15-.92ZM21.16,26.45c.42.2.43.5.34.84.32.02.65-.14,1,.19-.21-.43.04-.65.34-.93-.65.17-.63-.38-.9-.71-.05.47-.32.62-.78.61ZM21.96,19.56c-.04.49-.4.52-.68.53.11.7.64.9,1.23,1.11-.11-.38-.07-.72.34-.94-.5,0-.71-.29-.89-.7ZM6,21.38c.83.17,1.03-.41,1.27-1.04-.43.19-.64-.08-.92-.6.08.74-.33.77-.85.88.58.19.57.51.5.76ZM12.68,24.89c.3-.27.98.05.97-.75,0-.47-.63-.29-.54-.81,0,.58-.4.65-.94.77.53.18.52.5.53.81-.07-.01-.13,0-.06.08.02-.03.03-.07.05-.1ZM12.68,28.06c.29-.28.99.05.96-.76-.01-.47-.61-.3-.52-.76-.08.46-.38.62-.81.76.55.12.29.51.38.77-.03.02-.05.04-.08.06.02,0,.04,0,.05,0,.01-.02.01-.04.02-.07ZM12.68,31.23c.22-.36,1.01.09.96-.75-.03-.46-.62-.29-.51-.77-.08.46-.4.61-.96.76.66.15.46.51.53.78-.03.02-.06.04-.08.05.02,0,.04,0,.05,0,.01-.02.02-.04.02-.06ZM27.17,30.23c0,.91,0,1.82,0,2.73,0,.87-.02,1.75-.03,2.62-1.55-.27-3.07-.7-4.64-.92-3.08-.45-6.11-.22-9.12.48-2.9.68-5.77,1.55-8.78,1.63-1.49.04-2.96-.1-4.44-.19-.54-.03-.62-.25-.62-.73.02-5.33.01-10.66.01-15.99,0-.6.02-1.21,0-1.81-.02-.38.08-.53.5-.48,4.05.57,8.01.06,11.91-1.07,4.82-1.39,9.66-1.37,14.5,0,.24.07.5.07.69.26,0,.88,0,1.77.01,2.65,0,.91,0,1.82,0,2.73,0,.9,0,1.79,0,2.69,0,.91,0,1.82,0,2.73,0,.89,0,1.78,0,2.68Z"/>
    <path id="Group_7" data-name="Group 7" d="M59.91,51.13c-4.41-.93-8.64-.26-12.85.88-2.42.66-4.85,1.29-7.36,1.56-3.2.34-6.31-.1-9.4-.86-2.92-.72-5.81-1.6-8.82-1.91-3.17-.33-6.26.1-9.32.89-2.51.65-5.02,1.26-7.62,1.34-1.54.05-3.06-.08-4.59-.22-.28-.03-.42-.12-.39-.41,0-.02,0-.05,0-.08,0-.7-.25-1.6.08-2.06.38-.53,1.29-.07,1.97-.02,3.27.23,6.47-.16,9.61-1.04,3.86-1.08,7.76-1.62,11.77-.94,2.28.38,4.52.95,6.74,1.58,5.06,1.44,10.09,1.44,15.16.02,2.87-.8,5.76-1.6,8.76-1.83,1.94-.15,3.86-.04,5.78.27.25.04.49.07.49.43-.02.78,0,1.55,0,2.4Z"/>
    <path id="Group_6" data-name="Group 6" d="M59.91,44.36q0,1.33-1.3,1.13c-3.83-.59-7.54.05-11.24,1.02-2.5.66-4.99,1.34-7.57,1.63-3.25.36-6.41-.08-9.55-.86-3.04-.76-6.04-1.67-9.19-1.93-2.58-.21-5.11.05-7.62.63-2.93.67-5.82,1.57-8.86,1.64-1.54.04-3.06-.08-4.59-.22-.39-.03-.45-.2-.43-.52.02-.48.05-.96,0-1.43-.08-.67.13-.84.81-.76,1.64.2,3.3.26,4.96.16,2.17-.14,4.28-.58,6.35-1.18,5.06-1.45,10.09-1.42,15.15,0,2.68.75,5.37,1.47,8.15,1.77,3.2.34,6.31-.1,9.39-.87,3.09-.77,6.14-1.71,9.34-1.96,1.92-.15,3.81-.02,5.7.27.34.05.55.17.5.58-.04.3,0,.6,0,.9Z"/>
    <path id="Group_5" data-name="Group 5" d="M55.45,39.84c-2.76.01-5.43.58-8.09,1.26-2.43.63-4.84,1.3-7.35,1.6-3.71.45-7.3-.18-10.87-1.12-2.64-.7-5.28-1.41-8.02-1.65-2.61-.22-5.17.04-7.7.62-2.93.67-5.82,1.56-8.86,1.64-1.54.04-3.06-.09-4.59-.22-.39-.03-.44-.21-.42-.52.02-.4,0-.8,0-1.21,0-1.06,0-1.04,1.02-.94,3.1.32,6.16.17,9.2-.58,1.95-.49,3.88-1.01,5.87-1.33,3.96-.64,7.8-.05,11.62.96,2.54.67,5.08,1.37,7.72,1.65,3.22.34,6.36-.11,9.47-.89,3.09-.77,6.14-1.71,9.35-1.95,1.89-.14,3.76,0,5.63.28.35.05.51.19.49.59-.04.58-.03,1.16,0,1.73.01.38-.05.51-.49.43-1.31-.24-2.64-.37-3.97-.36Z"/>
    <path id="Group_4" data-name="Group 4" d="M27.17,24.82c0-.9,0-1.79,0-2.69,2.12.4,4.18,1.07,6.31,1.43,4.11.69,8.1.1,12.06-.97,2.76-.74,5.52-1.5,8.4-1.68,1.84-.12,3.66.01,5.48.3.36.06.51.2.49.58-.03.6-.02,1.21,0,1.81.01.33-.08.43-.43.37-4.07-.77-8.04-.21-11.99.85-2.35.63-4.7,1.28-7.12,1.6-3.44.46-6.81.06-10.15-.8-1.02-.26-2.04-.52-3.06-.78Z"/>
    <path id="Group_3" data-name="Group 3" d="M27.17,19.4c0-.88,0-1.77-.01-2.65,1.65.2,3.22.75,4.83,1.11,4.19.93,8.33.67,12.45-.4,2.69-.7,5.37-1.48,8.15-1.83,2.26-.29,4.51-.21,6.75.14.41.07.62.2.58.66-.05.57-.03,1.16,0,1.73.01.33-.08.44-.43.37-4.17-.79-8.24-.17-12.28.92-2.32.63-4.65,1.25-7.05,1.55-3.34.41-6.61.02-9.85-.81-1.05-.27-2.09-.53-3.14-.8Z"/>
    <path id="Group_2" data-name="Group 2" d="M27.17,30.23c0-.89,0-1.78,0-2.68,2.11.41,4.17,1.07,6.3,1.43,3.89.65,7.69.18,11.47-.82,2.93-.77,5.85-1.61,8.9-1.83,1.86-.13,3.71,0,5.55.28.4.06.54.22.52.63-.04.68.24,1.56-.09,1.98-.35.43-1.22-.02-1.87-.09-3.24-.36-6.4.07-9.54.86-2.7.68-5.37,1.47-8.14,1.84-3.39.45-6.71.04-9.99-.79-1.04-.26-2.09-.54-3.13-.81Z"/>
    <path id="Group_1" data-name="Group 1" d="M27.15,35.58c0-.87.02-1.75.03-2.62,2.14.44,4.22,1.09,6.38,1.45,3.87.64,7.65.15,11.4-.83,2.91-.76,5.81-1.6,8.83-1.82,1.89-.14,3.76,0,5.63.28.34.05.53.17.5.57-.04.6-.02,1.21,0,1.81,0,.31-.03.44-.41.37-4.12-.8-8.14-.19-12.13.88-2.4.64-4.79,1.29-7.27,1.6-3.71.46-7.31-.11-10.87-1.11-.7-.19-1.44-.23-2.09-.58Z"/>
  </g>
</svg>