<?xml version="1.0" encoding="UTF-8"?>
<svg id="Layer_1" data-name="Layer 1" xmlns="http://www.w3.org/2000/svg" viewBox="0 0 60 60">
  <defs>
    <style>
      .cls-1 {
        fill: #fff;
      }
    </style>
  </defs>
  <polygon class="cls-1" points="6.64 32.88 15.92 38.02 27.86 32.55 6.64 32.88"/>
  <path d="M38.44,4.47c2.5-.26,4.91.57,6.79,2.2,4.04,4.54,8.49,8.74,12.54,13.27.92,1.03,1.68,1.82,1.8,3.29-.43,7.18.56,15,0,22.1-.17,2.15-1.76,3.68-3.91,3.79H3.78c-2.05-.16-3.55-1.62-3.78-3.66v-21.73c.22-2.53,2.06-2.99,4.02-3.93,10.99-5.24,22.19-10.14,33.29-15.11.37-.08.77-.18,1.14-.22ZM57.04,24.74c.57-.57.72-1.63.22-2.31-4.21-4.34-8.14-9-12.4-13.29-2.48-2.49-4.72-3.45-8.21-2.13L2.35,22.89c-.66.84-.36,1.98.65,2.3l52.66.09c.43-.02,1.08-.24,1.38-.54ZM57.58,26.89l-1.42.38H3.03s-.99-.26-.99-.26c-.38,2.13.58,4.01,2.85,4.22h49.64c2.51-.19,3.25-2.05,3.04-4.34ZM57.58,35.7c-2.78,1.13-5.43,2.07-8.5,1.86-2.31-.16-3.97-1.13-6.42-.71-3.25.56-4.22,1.65-7.91.65-2.43-.66-3.99-2.24-5.87-3.77l-12.59,5.41-.59.03-10.89-5.87c-1.04-.09-1.92-.46-2.82-.96v8.93c1.44-.77,3.26-1.21,4.9-1.12,2.56.15,4.52,1.89,7.07,1.87,2.39-.01,4.35-1.66,6.7-1.87,4.47-.4,6.88,2.62,11.1,1.55,2.75-.7,3.59-1.79,6.89-1.56s4.89,2.4,8.5,1.69c1.19-.24,2.14-.88,3.25-1.22,2.43-.76,4.94-.55,7.17.66v-5.58ZM24.69,33.22h-15.64l6.89,3.8,8.75-3.8ZM21.19,42.2c-2.29.18-4.08,1.65-6.49,1.83-4.57.33-7.15-3.33-11.73-.94-.28.15-.94.47-.99.75-.27,1.45.25,3.16,1.92,3.29,17.44-.1,34.93.2,52.34-.15,1.25-.33,1.54-2.04,1.33-3.14-.06-.33-1.23-.88-1.58-1.02-4.37-1.76-6.69,1.48-11.02,1.22-2.82-.17-4.79-2.01-7.69-1.87-2.3.12-4.19,1.66-6.58,1.86-3.86.32-6.08-2.1-9.52-1.82Z"/>
  <path class="cls-1" d="M57.04,24.74c-.3.3-.95.53-1.38.54l-52.66-.09c-1.01-.33-1.3-1.46-.65-2.3L36.65,7.02c3.5-1.32,5.73-.36,8.21,2.13,4.26,4.28,8.19,8.95,12.4,13.29.49.67.35,1.74-.22,2.31ZM39.92,11.77l-1.95,1.91,1.42,1.42,1.93-2.05c-.17-.33-1.09-1.37-1.41-1.29ZM30.77,13.37h-2.98v1.99h2.98v-1.99ZM44.66,15.98l-1.84.75.94,1.97,1.78-.74-.88-1.98ZM33.44,16.6l-1.42,1.42,2.05,2.05c.24-.34,1.39-1.15,1.29-1.52l-1.91-1.95ZM20.84,16.97l-1.85.74.88,1.98,1.85-.74-.88-1.98ZM13.21,19.57l-2.05,2.05,1.42,1.42,2.05-2.05-1.42-1.42ZM26.12,19.57l-2.05,2.05,1.42,1.42,1.91-1.95c.1-.38-1.05-1.19-1.29-1.52ZM48.33,20.57l-1.42,1.42,2.05,2.05c.24-.34,1.39-1.15,1.29-1.52l-1.91-1.95ZM40.44,21.45c-.24-.17-2.5.8-2.95.87l.49,1.97,3.1-1-.63-1.85Z"/>
  <path class="cls-1" d="M57.58,35.7v5.58c-2.23-1.21-4.74-1.41-7.17-.66-1.11.34-2.06.99-3.25,1.22-3.61.72-5.29-1.46-8.5-1.69s-4.15.86-6.89,1.56c-4.22,1.07-6.63-1.95-11.1-1.55-2.35.21-4.31,1.86-6.7,1.87-2.55.02-4.52-1.72-7.07-1.87-1.64-.1-3.46.34-4.9,1.12v-8.93c.9.5,1.78.87,2.82.96l10.89,5.87.59-.03,12.59-5.41c1.88,1.53,3.44,3.11,5.87,3.77,3.69,1,4.66-.09,7.91-.65,2.45-.42,4.12.55,6.42.71,3.06.21,5.72-.73,8.5-1.86Z"/>
  <path class="cls-1" d="M21.19,42.2c3.44-.27,5.66,2.14,9.52,1.82,2.39-.2,4.28-1.74,6.58-1.86,2.89-.15,4.87,1.69,7.69,1.87,4.33.26,6.65-2.98,11.02-1.22.35.14,1.52.69,1.58,1.02.21,1.1-.08,2.81-1.33,3.14-17.41.36-34.9.05-52.34.15-1.68-.13-2.2-1.84-1.92-3.29.05-.27.71-.6.99-.75,4.59-2.39,7.17,1.27,11.73.94,2.41-.17,4.2-1.65,6.49-1.83Z"/>
  <path class="cls-1" d="M57.58,26.89c.21,2.29-.53,4.15-3.04,4.35H4.9c-2.28-.21-3.23-2.1-2.85-4.23l.99.25h53.12s1.42-.38,1.42-.38Z"/>
  <path d="M40.44,21.45l.63,1.85-3.1,1-.49-1.97c.46-.07,2.72-1.04,2.95-.87Z"/>
  <rect x="27.79" y="13.37" width="2.98" height="1.99"/>
  <path d="M33.44,16.6l1.91,1.95c.1.38-1.05,1.19-1.29,1.52l-2.05-2.05,1.42-1.42Z"/>
  <path d="M26.12,19.57c.24.34,1.39,1.15,1.29,1.52l-1.91,1.95-1.42-1.42,2.05-2.05Z"/>
  <path d="M39.92,11.77c.32-.08,1.24.96,1.41,1.29l-1.93,2.05-1.42-1.42,1.95-1.91Z"/>
  <path class="cls-1" d="M57.86,32.37s-1.82.99-2.65,1.16-23.54,0-23.54,0c0,0,3.15,2.65,5.31,2.49s4.97-.99,6.63-.99,5.97.99,7.79.83,6.63-2.32,6.63-2.32l-.17-1.16Z"/>
  <rect x="11.45" y="20.36" width="2.89" height="2.02" transform="translate(-11.34 15.38) rotate(-45)"/>
  <path d="M48.32,20.63l1.91,1.95c.1.38-1.05,1.19-1.29,1.52l-2.05-2.05,1.42-1.42Z"/>
  <polygon points="44.65 16.04 45.53 18.02 43.75 18.75 42.81 16.79 44.65 16.04"/>
  <polygon points="20.82 17.04 21.7 19.01 19.85 19.75 18.97 17.77 20.82 17.04"/>
</svg>